<?xml version="1.0" encoding="UTF-8"?>
<svg id="Camada_1" data-name="Camada 1" xmlns="http://www.w3.org/2000/svg" viewBox="0 0 1914 1080">
  <defs>
    <style>
      .cls-1 {
        font-family: Game-Font, 'Game Font';
        font-size: 872.8px;
      }

      .cls-1, .cls-2 {
        fill: #00bfff;
      }

      .cls-2, .cls-3 {
        stroke-width: 0px;
      }

      .cls-3 {
        fill: #2c2f33;
      }
    </style>
  </defs>
  <rect class="cls-3" x="-2" y="0" width="1918" height="1080"/>
  <text class="cls-1" transform="translate(117.2 722.56)"><tspan x="0" y="0">SuperZe</tspan></text>
  <path class="cls-2" d="M1740.43,474.96c-2.17-11.27,1.3-27.97,8.62-36.72,2.04-2.39,4.67-4.49,7.16-6.66,7.9-6.16,11.51-14.76,12.42-24.54.58-6.38,1.76-12.6,3.99-18.52,1.92-5.84,3.8-11.73,6.93-17.04,3.09-5.29,6.88-10.22,11.24-14.87,4.64-4.88,9.54-9.22,15.65-12.65,0,0,2.14,1.08,2.14,1.08,1.47,13.04-1.27,26.14-6.12,37.98-2.41,5.67-6.03,10.69-9.57,15.71-1.79,2.52-3.47,5.09-5.63,7.43-4.13,4.68-9.67,8.73-13.27,13.84-1.8,2.52-3.28,5.19-4.28,8.11-2.12,5.88-1.4,13.08-2.75,19.15-1.37,6.16-5.01,11.19-8.84,16.08-4.36,5.16-9.11,9.55-15.54,12.7,0,0-2.14-1.08-2.14-1.08h0Z"/>
</svg>