<?xml version="1.0" encoding="UTF-8"?>
<svg id="Camada_2" data-name="Camada 2" xmlns="http://www.w3.org/2000/svg" viewBox="0 0 229.99 162.1">
  <defs>
    <style>
      .cls-1 {
        fill: #fff;
        stroke-width: 0px;
      }
    </style>
  </defs>
  <g id="Camada_1-2" data-name="Camada 1">
    <g>
      <path class="cls-1" d="M19.77,60.89c9.71-9.71,21.16-14.57,34.34-14.57,14.76,0,27.35,5.65,37.79,16.94,10.43,11.3,15.65,24.93,15.65,40.89s-5.22,29.71-15.65,41.01c-10.43,11.3-23.03,16.94-37.79,16.94-13.18,0-24.63-4.86-34.34-14.57L0,161.88V0l19.77,14.69v46.2ZM19.77,128.67c1.66,4.9,5.31,9.3,10.96,13.22,5.65,3.92,12.95,5.87,21.91,5.87,9.71,0,18-4.25,24.85-12.76,6.85-8.51,10.28-18.79,10.28-30.84s-3.43-22.21-10.28-30.73c-6.85-8.51-15.14-12.76-24.85-12.76s-17.4,2.71-23.04,8.13c-5.65,5.42-8.92,10.21-9.83,14.35v45.52Z"/>
      <path class="cls-1" d="M204.69,16.27h-32.53c-12.73,0-21.48,2.13-26.26,6.38-4.78,4.26-7.17,9.7-7.17,16.32,0,7.38,3.12,13.37,9.38,17.96,5.65,4.14,14.84,8.17,27.56,12.09,12.73,3.92,25.3,9.26,37.73,16.04,11.07,7.98,16.61,19.09,16.61,33.32,0,11.97-5.18,22.22-15.53,30.73-10.36,8.51-23.7,12.77-40.05,12.77-19.43,0-33.97-4.69-43.6-14.06-9.64-9.38-14.42-21.07-14.35-35.08h22.25c-.15,10.92,2.77,19.13,8.75,24.63,5.99,5.5,14.97,8.25,26.94,8.25,10.39,0,18.73-2.32,25.02-6.95,6.29-4.63,9.43-11.39,9.43-20.28s-3.5-16-10.51-21.35c-5.65-4.14-14.65-7.98-27-11.52-12.35-3.54-25.12-9.19-38.29-16.94-11.07-7-16.61-16.87-16.61-29.6,0-11.97,4.61-21.46,13.84-28.47,9.22-7,23.18-10.51,41.85-10.51h47.22l-14.69,16.27Z"/>
    </g>
  </g>
</svg>