<?xml version="1.0" encoding="UTF-8"?>
<svg id="Camada_2" data-name="Camada 2" xmlns="http://www.w3.org/2000/svg" viewBox="0 0 1004.69 162.43">
  <defs>
    <style>
      .cls-1 {
        fill: #f2f2f2;
        stroke-width: 0px;
      }
    </style>
  </defs>
  <g id="Camada_1-2" data-name="Camada 1">
    <g>
      <path class="cls-1" d="M109.69,146.72c-.38.3-.72.56-1.02.79-8.44,10.17-20.94,14.87-37.5,14.12-21.01,0-38.14-7.91-51.4-23.72C6.59,122.32,0,103.31,0,80.87S6.59,39.37,19.77,23.71C33.02,7.97,50.16.1,71.17.1c15.81-.75,29.24,2.82,40.27,10.73,11.03,7.91,17.04,18.38,18.02,31.4v2.71h-20.45v-2.6c.38-7.23-3.2-13.52-10.73-18.87-7.53-4.74-16.57-7.04-27.11-6.89-15.74,0-28.35,6.29-37.84,18.87-9.49,12.5-14.23,27.64-14.23,45.41s4.74,32.91,14.23,45.41c9.49,12.58,22.1,18.87,37.84,18.87,12.05.83,21.48-2.13,28.3-8.87,6.81-6.74,10.22-17.75,10.22-33.04v-9.38h-32.08l13.56-15.36h38.29v83.59l-19.77-15.36Z"/>
      <path class="cls-1" d="M211.47,152.26c-7.61,6.78-17.81,10.17-30.61,10.17s-24.4-3.05-32.99-9.15c-8.59-6.1-12.88-14.95-12.88-26.55s4.48-20.45,13.44-26.55c8.21-5.57,16.85-9.13,25.92-10.67,9.07-1.54,17.34-2.75,24.8-3.62,7.46-.86,11.18-3.67,11.18-8.42s-2.54-8.77-7.63-12.09c-5.08-3.31-11.24-4.97-18.47-4.97s-13.41,1.66-18.53,4.97c-4.44,2.94-6.93,7.95-7.46,15.02h-18.75c-.23-10.92,3.88-19.24,12.31-24.96,8.96-6.1,19.77-9.15,32.42-9.15s23.46,3.05,32.42,9.15c8.96,6.1,13.44,13.44,13.44,22.03v84.61l-18.64-9.83ZM210.34,98.83c-4.37,1.36-11.64,2.49-21.8,3.39-10.62.83-19.32,3.09-26.09,6.78-5.12,4.07-7.68,9.98-7.68,17.74s2.54,13.29,7.62,16.61c5.08,3.31,11.24,4.97,18.47,4.97s14.16-1.66,20.79-4.97c5.27-2.94,8.17-5.31,8.7-7.12v-37.39Z"/>
      <path class="cls-1" d="M254.96,61.1c9.71-9.71,21.16-14.57,34.34-14.57,14.76,0,27.35,5.65,37.79,16.94,10.43,11.3,15.65,24.93,15.65,40.89s-5.22,29.71-15.65,41.01c-10.43,11.3-23.03,16.94-37.79,16.94-13.18,0-24.63-4.86-34.34-14.57l-19.77,14.35V.21l19.77,14.69v46.2ZM254.96,128.88c1.66,4.9,5.31,9.3,10.96,13.22,5.65,3.92,12.95,5.87,21.91,5.87,9.71,0,18-4.25,24.85-12.76,6.85-8.51,10.28-18.79,10.28-30.84s-3.43-22.21-10.28-30.73c-6.85-8.51-15.14-12.76-24.85-12.76s-17.4,2.71-23.04,8.13c-5.65,5.42-8.92,10.21-9.83,14.35v45.52Z"/>
      <path class="cls-1" d="M439.88,16.48h-32.53c-12.73,0-21.48,2.13-26.26,6.38-4.78,4.26-7.17,9.7-7.17,16.32,0,7.38,3.12,13.37,9.38,17.96,5.65,4.14,14.84,8.17,27.56,12.09,12.73,3.92,25.3,9.26,37.73,16.04,11.07,7.98,16.61,19.09,16.61,33.32,0,11.97-5.18,22.22-15.53,30.73-10.36,8.51-23.7,12.77-40.05,12.77-19.43,0-33.97-4.69-43.6-14.06-9.64-9.38-14.42-21.07-14.35-35.08h22.25c-.15,10.92,2.77,19.13,8.75,24.63,5.99,5.5,14.97,8.25,26.94,8.25,10.39,0,18.73-2.32,25.02-6.95,6.29-4.63,9.43-11.39,9.43-20.28s-3.5-16-10.51-21.35c-5.65-4.14-14.65-7.98-27-11.52-12.35-3.54-25.12-9.19-38.29-16.94-11.07-7-16.61-16.87-16.61-29.6,0-11.97,4.61-21.46,13.84-28.47C374.72,3.71,388.67.21,407.35.21h47.22l-14.69,16.27Z"/>
      <path class="cls-1" d="M477.5,59.85l34.23-41.68v27.45h18.3l-18.3,14.23v79.75c.07,1.88.68,3.37,1.81,4.46,1.13,1.09,2.49,1.64,4.07,1.64h11.86v16.61h-11.86c-7.08,0-13.12-2.5-18.13-7.51-5.01-5.01-7.51-11.09-7.51-18.24V59.85h-14.46Z"/>
      <path class="cls-1" d="M623.56,46.53h19.77v115.67l-18.64-14.57c-7.46,9.71-18.9,14.57-34.34,14.57-17.02,0-29.8-4.52-38.35-13.56-8.55-9.04-12.82-19.66-12.82-31.86V46.53h19.77v70.26c0,8.21,2.48,15.44,7.46,21.69,4.97,6.25,13.06,9.38,24.29,9.38,21.76-.75,32.72-9.75,32.87-27V46.53Z"/>
      <path class="cls-1" d="M739.8,14.9L759.56.21v161.88l-19.77-13.22c-9.71,8.96-21.16,13.44-34.34,13.44-14.76,0-27.36-5.65-37.79-16.94-10.43-11.3-15.65-24.96-15.65-41.01s5.21-29.6,15.65-40.89c10.43-11.3,23.02-16.94,37.79-16.94,13.18,0,24.63,4.48,34.34,13.44V14.9ZM739.8,83.35c-.9-4.14-4.18-8.92-9.83-14.35-5.65-5.42-13.33-8.13-23.04-8.13s-18,4.25-24.85,12.76c-6.85,8.51-10.28,18.75-10.28,30.73s3.43,22.33,10.28,30.84c6.85,8.51,15.14,12.76,24.85,12.76,8.96,0,16.27-1.96,21.92-5.87,5.65-3.92,9.3-8.32,10.96-13.22v-45.52Z"/>
      <path class="cls-1" d="M768.83.21h19.77l-19.77,21.58V.21ZM768.83,60.65l19.77-14.69v116.13h-19.77V60.65Z"/>
      <path class="cls-1" d="M888.57,63.47c10.69,11.3,16.04,24.93,16.04,40.89s-5.35,29.71-16.04,41.01c-10.7,11.3-23.65,16.94-38.86,16.94s-28.07-5.65-38.8-16.94c-10.73-11.3-16.1-24.96-16.1-41.01s5.37-29.6,16.1-40.89,23.67-16.94,38.8-16.94,28.16,5.65,38.86,16.94ZM874.56,73.64c-6.85-8.51-15.14-12.76-24.85-12.76s-17.98,4.25-24.8,12.76c-6.82,8.51-10.22,18.75-10.22,30.73s3.41,22.33,10.22,30.84c6.82,8.51,15.08,12.76,24.8,12.76s18-4.25,24.85-12.76c6.85-8.51,10.28-18.79,10.28-30.84s-3.43-22.21-10.28-30.73Z"/>
      <path class="cls-1" d="M986.17,60.42h-27.34c-15.51,0-24.21,5.12-26.09,15.36,0,5.12,1.66,9.06,4.97,11.8,3.31,2.75,11.01,5.46,23.1,8.13,12.09,2.67,22.42,6.93,31.01,12.76,8.58,5.84,12.88,13.8,12.88,23.89s-3.73,17.62-11.18,22.59c-7.46,4.97-18.64,7.46-33.55,7.46-13.41,0-24.59-3.05-33.55-9.15-8.44-5.72-12.92-14.8-13.44-27.22h19.77c.53,8.58,3.05,14.35,7.57,17.28,5.12,3.31,11.67,4.97,19.66,4.97,9.49,0,16.02-1.28,19.6-3.84,3.58-2.56,5.37-6.59,5.37-12.09,0-6.25-2.41-10.94-7.23-14.06-4.82-3.12-13.27-6.02-25.36-8.7-12.09-2.67-21.48-6.55-28.18-11.63-6.7-5.08-10.05-11.92-10.05-20.5s3.92-15.93,11.75-22.03c7.83-6.1,18.83-9.15,32.99-9.15h39.65l-12.31,14.12Z"/>
    </g>
  </g>
</svg>